<svg width="209" height="208" viewBox="0 0 209 208" fill="none" xmlns="http://www.w3.org/2000/svg">
<path d="M8.24218 142.893C-2.74739 131.904 -2.74739 114.086 8.24218 103.097C19.2317 92.1071 37.0493 92.1071 48.0389 103.097C59.0285 114.086 59.0285 131.904 48.0389 142.893C37.0493 153.883 19.2317 153.883 8.24218 142.893Z" fill="#FF0000"/>
<path d="M64.2718 143.417C53.2822 132.428 53.2822 114.61 64.2718 103.62C75.2614 92.6308 93.079 92.6308 104.069 103.62C115.058 114.61 115.058 132.428 104.069 143.417C93.079 154.407 75.2614 154.407 64.2718 143.417Z" fill="#00AAFF"/>
<path d="M65.8427 199.447C54.8531 188.457 54.8531 170.64 65.8427 159.65C76.8323 148.66 94.6499 148.66 105.639 159.65C116.629 170.64 116.629 188.457 105.639 199.447C94.6499 210.436 76.8323 210.436 65.8427 199.447Z" fill="#00FF6A"/>
<path d="M200.494 64.7954C211.483 75.785 211.483 93.6026 200.494 104.592C189.504 115.582 171.687 115.582 160.697 104.592C149.707 93.6026 149.707 75.785 160.697 64.7954C171.687 53.8059 189.504 53.8059 200.494 64.7954Z" fill="#FF0000"/>
<path d="M144.464 64.2718C155.454 75.2614 155.454 93.079 144.464 104.069C133.475 115.058 115.657 115.058 104.667 104.069C93.6779 93.079 93.6779 75.2613 104.667 64.2718C115.657 53.2822 133.475 53.2822 144.464 64.2718Z" fill="#00AAFF"/>
<path d="M142.893 8.24218C153.883 19.2317 153.883 37.0493 142.893 48.0389C131.904 59.0285 114.086 59.0285 103.097 48.0389C92.1069 37.0493 92.107 19.2317 103.097 8.24217C114.086 -2.74739 131.904 -2.74739 142.893 8.24218Z" fill="#00FF6A"/>
</svg>
