<svg width="167" height="146" viewBox="0 0 167 146" fill="none" xmlns="http://www.w3.org/2000/svg">
<path d="M9.76827e-05 51.83L12.7091 -4.52995e-05H26.1991L39.0501 51.83H28.1871L25.7021 40.115H13.3481L10.8631 51.83H9.76827e-05ZM15.1231 31.595H23.8561L21.3711 19.099C21.0398 17.3003 20.6848 15.5253 20.3061 13.774C19.9748 11.9753 19.7144 10.579 19.5251 9.58495C19.3358 10.579 19.0754 11.9516 18.7441 13.703C18.4601 15.4543 18.1288 17.2293 17.7501 19.028L15.1231 31.595ZM56.7724 51.83V9.93995H43.6374V-4.52995e-05H80.5574V9.93995H67.4224V51.83H56.7724ZM88.3396 51.83V-4.52995e-05H121.71V9.93995H98.8476V21.442H119.864V31.382H98.9896V51.83H88.3396ZM2.6981 145.83V94H19.5251C23.1224 94 26.2464 94.6863 28.8971 96.059C31.5951 97.4316 33.6778 99.3723 35.1451 101.881C36.6598 104.342 37.4171 107.253 37.4171 110.614V129.145C37.4171 132.458 36.6598 135.369 35.1451 137.878C33.6778 140.387 31.5951 142.351 28.8971 143.771C26.2464 145.144 23.1224 145.83 19.5251 145.83H2.6981ZM13.3481 135.89H19.5251C21.7024 135.89 23.4538 135.275 24.7791 134.044C26.1044 132.813 26.7671 131.18 26.7671 129.145V110.614C26.7671 108.626 26.1044 107.017 24.7791 105.786C23.4538 104.555 21.7024 103.94 19.5251 103.94H13.3481V135.89ZM42.5724 145.83L55.2814 94H68.7714L81.6224 145.83H70.7594L68.2744 134.115H55.9204L53.4354 145.83H42.5724ZM57.6954 125.595H66.4284L63.9434 113.099C63.612 111.3 63.257 109.525 62.8784 107.774C62.547 105.975 62.2867 104.579 62.0974 103.585C61.908 104.579 61.6477 105.952 61.3164 107.703C61.0324 109.454 60.701 111.229 60.3224 113.028L57.6954 125.595ZM99.3446 145.83V103.94H86.2096V94H123.13V103.94H109.995V145.83H99.3446ZM127.717 145.83L140.426 94H153.916L166.767 145.83H155.904L153.419 134.115H141.065L138.58 145.83H127.717ZM142.84 125.595H151.573L149.088 113.099C148.757 111.3 148.402 109.525 148.023 107.774C147.692 105.975 147.431 104.579 147.242 103.585C147.053 104.579 146.792 105.952 146.461 107.703C146.177 109.454 145.846 111.229 145.467 113.028L142.84 125.595Z" fill="white"/>
</svg>
