{
  "accessors": [
    {
      "bufferView": 2,
      "componentType": 5126,
      "count": 3362,
      "max": [
        0.04200239107012749,
        0.13834185898303986,
        0.03168954700231552
      ],
      "min": [
        -0.04200240597128868,
        0.03922390192747116,
        -0.03168953210115433
      ],
      "type": "VEC3"
    },
    {
      "bufferView": 2,
      "byteOffset": 40344,
      "componentType": 5126,
      "count": 3362,
      "max": [
        1.0,
        1.0,
        1.0
      ],
      "min": [
        -1.0,
        -1.0,
        -1.0
      ],
      "type": "VEC3"
    },
    {
      "bufferView": 1,
      "componentType": 5126,
      "count": 3362,
      "max": [
        1.0,
        1.0
      ],
      "min": [
        -0.040052205324172974,
        0.0
      ],
      "type": "VEC2"
    },
    {
      "bufferView": 0,
      "componentType": 5125,
      "count": 14346,
      "type": "SCALAR"
    },
    {
      "bufferView": 2,
      "byteOffset": 80688,
      "componentType": 5126,
      "count": 8033,
      "max": [
        0.05209832265973091,
        0.19222015142440796,
        0.0520983561873436
      ],
      "min": [
        -0.052098315209150314,
        -6.407499313354492e-07,
        -0.05209831893444061
      ],
      "type": "VEC3"
    },
    {
      "bufferView": 2,
      "byteOffset": 177084,
      "componentType": 5126,
      "count": 8033,
      "max": [
        1.0,
        1.0,
        1.0
      ],
      "min": [
        -1.0,
        -1.0,
        -1.0
      ],
      "type": "VEC3"
    },
    {
      "bufferView": 1,
      "byteOffset": 26896,
      "componentType": 5126,
      "count": 8033,
      "max": [
        1.0,
        1.0
      ],
      "min": [
        0.0,
        0.0
      ],
      "type": "VEC2"
    },
    {
      "bufferView": 0,
      "byteOffset": 57384,
      "componentType": 5125,
      "count": 40248,
      "type": "SCALAR"
    },
    {
      "bufferView": 2,
      "byteOffset": 273480,
      "componentType": 5126,
      "count": 320,
      "max": [
        0.013772919774055481,
        0.12136074155569077,
        0.031382277607917786
      ],
      "min": [
        -0.013772944919764996,
        0.09381486475467682,
        0.02621384710073471
      ],
      "type": "VEC3"
    },
    {
      "bufferView": 2,
      "byteOffset": 277320,
      "componentType": 5126,
      "count": 320,
      "max": [
        1.0,
        1.0,
        0.9923622012138367
      ],
      "min": [
        -1.0,
        -1.0,
        -0.0
      ],
      "type": "VEC3"
    },
    {
      "bufferView": 1,
      "byteOffset": 91160,
      "componentType": 5126,
      "count": 320,
      "max": [
        0.0,
        0.0
      ],
      "min": [
        0.0,
        0.0
      ],
      "type": "VEC2"
    },
    {
      "bufferView": 0,
      "byteOffset": 218376,
      "componentType": 5125,
      "count": 1728,
      "type": "SCALAR"
    }
  ],
  "asset": {
    "extras": {
      "author": "senya.frozenov (https://sketchfab.com/senya.frozenov)",
      "license": "CC-BY-4.0 (http://creativecommons.org/licenses/by/4.0/)",
      "source": "https://sketchfab.com/3d-models/microphone-90d535a27bfb407e9e451f372bda6136",
      "title": "Microphone"
    },
    "generator": "Sketchfab-12.67.0",
    "version": "2.0"
  },
  "bufferViews": [
    {
      "buffer": 0,
      "byteLength": 225288,
      "name": "floatBufferViews",
      "target": 34963
    },
    {
      "buffer": 0,
      "byteLength": 93720,
      "byteOffset": 225288,
      "byteStride": 8,
      "name": "floatBufferViews",
      "target": 34962
    },
    {
      "buffer": 0,
      "byteLength": 281160,
      "byteOffset": 319008,
      "byteStride": 12,
      "name": "floatBufferViews",
      "target": 34962
    }
  ],
  "buffers": [
    {
      "byteLength": 600168,
      "uri": "scene.bin"
    }
  ],
  "materials": [
    {
      "doubleSided": true,
      "name": "metall",
      "pbrMetallicRoughness": {
        "baseColorFactor": [
          0.00719357,
          0.00650529,
          0.00659,
          1.0
        ],
        "metallicFactor": 0.822313,
        "roughnessFactor": 0.411802
      }
    },
    {
      "doubleSided": true,
      "name": "metall_rough",
      "pbrMetallicRoughness": {
        "baseColorFactor": [
          0.00489564,
          0.00489564,
          0.00489564,
          1.0
        ],
        "metallicFactor": 0.711443,
        "roughnessFactor": 0.505825
      }
    },
    {
      "doubleSided": true,
      "emissiveFactor": [
        0.0,
        0.0175813,
        1.0
      ],
      "name": "blue_emis"
    }
  ],
  "meshes": [
    {
      "name": "Object_0",
      "primitives": [
        {
          "attributes": {
            "NORMAL": 1,
            "POSITION": 0,
            "TEXCOORD_0": 2
          },
          "indices": 3,
          "material": 0,
          "mode": 4
        }
      ]
    },
    {
      "name": "Object_1",
      "primitives": [
        {
          "attributes": {
            "NORMAL": 5,
            "POSITION": 4,
            "TEXCOORD_0": 6
          },
          "indices": 7,
          "material": 1,
          "mode": 4
        }
      ]
    },
    {
      "name": "Object_2",
      "primitives": [
        {
          "attributes": {
            "NORMAL": 9,
            "POSITION": 8,
            "TEXCOORD_0": 10
          },
          "indices": 11,
          "material": 2,
          "mode": 4
        }
      ]
    }
  ],
  "nodes": [
    {
      "children": [
        1
      ],
      "matrix": [
        1.0,
        0.0,
        0.0,
        0.0,
        0.0,
        2.220446049250313e-16,
        -1.0,
        0.0,
        0.0,
        1.0,
        2.220446049250313e-16,
        0.0,
        0.0,
        0.0,
        0.0,
        1.0
      ],
      "name": "Sketchfab_model"
    },
    {
      "children": [
        2
      ],
      "name": "root"
    },
    {
      "children": [
        3
      ],
      "matrix": [
        1.0,
        0.0,
        0.0,
        0.0,
        0.0,
        2.220446049250313e-16,
        1.0,
        0.0,
        0.0,
        -1.0,
        2.220446049250313e-16,
        0.0,
        0.0,
        0.0,
        0.0,
        1.0
      ],
      "name": "GLTF_SceneRootNode"
    },
    {
      "children": [
        4,
        5,
        6
      ],
      "name": "body.001_0"
    },
    {
      "mesh": 0,
      "name": "Object_4"
    },
    {
      "mesh": 1,
      "name": "Object_5"
    },
    {
      "mesh": 2,
      "name": "Object_6"
    }
  ],
  "scene": 0,
  "scenes": [
    {
      "name": "Sketchfab_Scene",
      "nodes": [
        0
      ]
    }
  ]
}
